HIERARCHY
ROOT root
{
	OFFSET	0	13.1	24.9
	CHANNELS 6  Xposition Yposition Zposition Xrotation Yrotation Zrotation
	JOINT spine_1
	{
		OFFSET	0	9.99999	0
		CHANNELS 3  Xrotation Yrotation Zrotation
		JOINT spine_2
		{
			OFFSET	0	112	-10
			CHANNELS 3  Xrotation Yrotation Zrotation
			JOINT spine_3
			{
				OFFSET	0	206.5	19.3
				CHANNELS 3  Xrotation Yrotation Zrotation
				JOINT spine_4
				{
					OFFSET	0	110.4	14.6
					CHANNELS 3  Xrotation Yrotation Zrotation
					JOINT neck_1
					{
						OFFSET	0	71.8	-50.3
						CHANNELS 3  Xrotation Yrotation Zrotation
						JOINT neck_2
						{
							OFFSET	0	86.2	-25.8
							CHANNELS 3  Xrotation Yrotation Zrotation
							JOINT head_ee
							{
								OFFSET	0	179.8	-8.7
								CHANNELS 3  Xrotation Yrotation Zrotation
								End Site
								{
									OFFSET	1	0	0
								}
							}
						}
					}
					JOINT left_clavicle
					{
						OFFSET	-43.2	22.4	-70.8
						CHANNELS 3  Xrotation Yrotation Zrotation
						JOINT left_shoulder
						{
							OFFSET	-93.9	-5.79999	48.7
							CHANNELS 3  Xrotation Yrotation Zrotation
							JOINT left_elbow
							{
								OFFSET	-291.4	-30.8	15.2
								CHANNELS 3  Xrotation Yrotation Zrotation
								JOINT left_lowarm_twist
								{
									OFFSET	-110.7	-3.89999	13.6
									CHANNELS 3  Xrotation Yrotation Zrotation
									JOINT left_hand
									{
										OFFSET	-110.7	-3.89999	13.6
										CHANNELS 3  Xrotation Yrotation Zrotation
										JOINT left_ee
										{
											OFFSET	-80.8	-5.10001	12.1
											CHANNELS 3  Xrotation Yrotation Zrotation
											End Site
											{
												OFFSET	1	0	0
											}
										}
									}
								}
							}
						}
					}
					JOINT right_clavicle
					{
						OFFSET	43.2	22.4	-70.8
						CHANNELS 3  Xrotation Yrotation Zrotation
						JOINT right_shoulder
						{
							OFFSET	93.9	-5.79999	48.7
							CHANNELS 3  Xrotation Yrotation Zrotation
							JOINT right_elbow
							{
								OFFSET	291.4	-30.8	15.2
								CHANNELS 3  Xrotation Yrotation Zrotation
								JOINT right_lowarm_twist
								{
									OFFSET	110.7	-3.89999	13.6
									CHANNELS 3  Xrotation Yrotation Zrotation
									JOINT right_hand
									{
										OFFSET	110.7	-3.89999	13.6
										CHANNELS 3  Xrotation Yrotation Zrotation
										JOINT right_ee
										{
											OFFSET	80.8	-5.10001	12.1
											CHANNELS 3  Xrotation Yrotation Zrotation
											End Site
											{
												OFFSET	1	0	0
											}
										}
									}
								}
							}
						}
					}
				}
			}
		}
	}
	JOINT left_hip
	{
		OFFSET	-82.8	-127.5	0.300001
		CHANNELS 3  Xrotation Yrotation Zrotation
		JOINT left_knee
		{
			OFFSET	-28.2	-396.7	2.2
			CHANNELS 3  Xrotation Yrotation Zrotation
			JOINT left_ankle
			{
				OFFSET	-11.7	-411.3	35.4
				CHANNELS 3  Xrotation Yrotation Zrotation
				JOINT left_toes
				{
					OFFSET	0	-60	-88.6
					CHANNELS 3  Xrotation Yrotation Zrotation
					JOINT left_foot_ee
					{
						OFFSET	-22.5	-16.5	-42.2
						CHANNELS 3  Xrotation Yrotation Zrotation
						End Site
						{
							OFFSET	1	0	0
						}
					}
				}
			}
		}
	}
	JOINT right_hip
	{
		OFFSET	82.8	-127.5	0.300001
		CHANNELS 3  Xrotation Yrotation Zrotation
		JOINT right_knee
		{
			OFFSET	28.2	-396.7	2.2
			CHANNELS 3  Xrotation Yrotation Zrotation
			JOINT right_ankle
			{
				OFFSET	11.7	-411.3	35.4
				CHANNELS 3  Xrotation Yrotation Zrotation
				JOINT right_toes
				{
					OFFSET	0	-60	-88.6
					CHANNELS 3  Xrotation Yrotation Zrotation
					JOINT right_foot_ee
					{
						OFFSET	22.5	-16.5	-42.2
						CHANNELS 3  Xrotation Yrotation Zrotation
						End Site
						{
							OFFSET	1	0	0
						}
					}
				}
			}
		}
	}
}
MOTION
Frames: 5
Frame Time: 0.02
2853.67 744.071 -1481.14 17.3129 62.4059 -18.3737 -0.538673 0.343524 2.884 -0.53406 0.159391 2.9 -0.523045 -0.480182 2.86444 -0.534493 -0.0219698 2.90429 -28.7727 19.1938 -0.518681 -32.8511 36.7557 12.1909 -0.0 0.0 -0.0 -2.68671 13.0634 -2.90492 1.05802 -20.7165 58.0334 2.12457 -46.458 0.911949 6.33725 0.179787 -0.789123 0.509712 10.8712 7.76354 -0.0 0.0 -0.0 12.7765 24.6758 -25.3094 -19.2937 26.4626 -64.2738 0.956277 25.347 -0.215046 37.1102 0.207552 4.65421 2.26085 -28.9124 -24.2649 0.0 0.0 0.0 -7.55657 0.199462 7.14404 -7.14311 0.227519 1.07194 28.5666 13.5881 -3.76321 -29.1296 0.0 0.0 -0.0 0.0 -0.0 4.77121 33.9693 -7.80784 -49.625 1.18967 -7.28876 38.5467 -26.6373 5.0801 4.13582 -0.0 -0.0 0.0 0.0 0.0 
2848.91 745.638 -1480.58 15.8796 61.1304 -17.3114 -0.600314 0.436727 3.12016 -0.59493 0.237398 3.1416 -0.578261 -0.460007 3.11682 -0.591815 0.037755 3.15032 -28.0984 19.3661 -1.22072 -32.2065 37.3955 11.4557 -0.0 0.0 -0.0 -2.69995 11.4668 -3.21892 3.2232 -20.6423 56.7702 2.18492 -47.2584 0.95599 6.13153 0.175328 -0.763223 0.426553 11.1729 7.34579 -0.0 0.0 -0.0 12.7267 24.2743 -25.2366 -18.0207 26.9127 -64.3948 0.886359 23.7049 -0.18602 35.6802 0.143849 4.48285 2.03123 -29.3146 -22.9735 0.0 0.0 0.0 -10.2976 -1.41274 8.31505 -2.61481 0.0987958 0.389092 31.0849 15.8827 -4.06263 -28.5928 0.0 0.0 -0.0 0.0 -0.0 7.74523 31.3535 -8.28782 -45.9059 0.884583 -6.80443 38.4786 -26.8096 5.07924 4.38515 -0.0 -0.0 0.0 0.0 0.0 
2836.16 743.26 -1479.84 15.9081 59.2361 -16.7518 -0.585991 0.603473 2.97714 -0.581155 0.412895 3.00947 -0.55586 -0.258265 3.02664 -0.568573 0.222753 3.02946 -29.0324 19.2956 -0.251292 -33.1843 36.8283 12.6188 -0.0 0.0 -0.0 -2.53551 10.6639 -3.08159 4.71447 -19.8688 56.1098 2.12864 -46.5128 0.914905 5.29917 0.156336 -0.658592 0.343572 11.4899 6.9373 -0.0 0.0 -0.0 13.2975 25.8397 -26.3848 -18.9069 26.9924 -63.5717 0.733938 19.9798 -0.129282 37.317 0.217119 4.67887 2.2228 -29.9729 -24.2503 0.0 0.0 0.0 -11.2093 -1.37156 8.67137 -3.23552 0.119629 0.482074 30.2714 14.5485 -3.95965 -29.128 0.0 0.0 -0.0 0.0 -0.0 11.2399 27.1491 -9.01578 -44.9871 0.814134 -6.68186 37.9759 -24.336 4.94908 2.14641 -0.0 -0.0 0.0 0.0 0.0 
2825.45 749.59 -1477.73 18.2593 60.4979 -19.5841 -0.727074 0.520846 3.11333 -0.72174 0.321781 3.14012 -0.700135 -0.383918 3.13314 -0.713814 0.115467 3.15444 -28.1957 19.2581 -0.697691 -32.2192 36.9968 11.8618 -0.0 0.0 -0.0 -2.7935 9.96776 -3.65375 6.34216 -20.7248 55.4155 2.15223 -46.8278 0.932063 4.73399 0.142575 -0.587707 0.31147 11.1686 6.60615 -0.0 0.0 -0.0 13.176 25.2469 -26.1713 -18.8801 26.4563 -63.5814 0.65666 18.0193 -0.104119 38.0193 0.250272 4.76232 2.26164 -30.0102 -24.4895 0.0 0.0 0.0 -12.8921 -2.08748 9.89985 -4.5372 0.160039 0.677752 30.6796 14.0062 -3.99841 -29.3621 0.0 0.0 -0.0 0.0 -0.0 14.9215 24.5885 -9.97685 -42.2696 0.617438 -6.31305 37.6224 -22.6103 4.86565 1.50667 -0.0 -0.0 0.0 0.0 0.0 
2810.27 751.37 -1473.94 17.7493 60.9765 -19.2112 -0.829655 0.484192 3.25963 -0.823787 0.275907 3.2838 -0.803575 -0.466581 3.26219 -0.81842 0.0541871 3.29491 -27.5134 19.1864 -1.18673 -31.422 37.1055 11.1 -0.0 0.0 -0.0 -2.47058 9.40166 -3.19101 8.08925 -20.6573 54.8447 2.16176 -46.9541 0.939019 4.09838 0.126263 -0.508153 0.216063 11.0011 5.92905 -0.0 0.0 -0.0 12.9491 24.9036 -25.6839 -18.9621 26.1774 -63.661 0.567818 15.7104 -0.0783394 38.2396 0.260881 4.78842 2.2518 -29.9624 -24.4213 0.0 0.0 0.0 -13.9884 -1.60194 10.5945 -3.42114 0.125664 0.509922 31.1983 14.7448 -4.06167 -29.4372 0.0 0.0 -0.0 0.0 -0.0 16.2935 21.82 -9.46643 -40.9021 0.525151 -6.12409 37.4322 -21.9064 4.82876 0.819975 -0.0 -0.0 0.0 0.0 0.0 
